<?xml version="1.0" encoding="UTF-8"?>
<svg xmlns="http://www.w3.org/2000/svg" xmlns:xlink="http://www.w3.org/1999/xlink" width="50px" height="50px" viewBox="0 0 50 50" version="1.1">
<g id="surface1">
<path style=" stroke:none;fill-rule:nonzero;fill:rgb(0%,0%,0%);fill-opacity:1;" d="M 25 12.5 C 20.398438 12.5 16.667969 16.230469 16.667969 20.832031 C 16.667969 25.4375 20.398438 29.167969 25 29.167969 C 29.601562 29.167969 33.332031 25.4375 33.332031 20.832031 C 33.332031 16.230469 29.601562 12.5 25 12.5 Z M 25 25 C 22.703125 25 20.832031 23.132812 20.832031 20.832031 C 20.832031 18.535156 22.703125 16.667969 25 16.667969 C 27.296875 16.667969 29.167969 18.535156 29.167969 20.832031 C 29.167969 23.132812 27.296875 25 25 25 Z M 25 25 "/>
<path style=" stroke:none;fill-rule:nonzero;fill:rgb(0%,0%,0%);fill-opacity:1;" d="M 25 50 C 21.4375 50.019531 18.09375 48.308594 16.015625 45.417969 C 8.078125 34.464844 4.050781 26.230469 4.050781 20.945312 C 4.050781 9.375 13.429688 -0.0078125 25 -0.0078125 C 36.570312 -0.0078125 45.949219 9.375 45.949219 20.945312 C 45.949219 26.230469 41.921875 34.464844 33.984375 45.417969 C 31.90625 48.308594 28.5625 50.019531 25 50 Z M 25 4.542969 C 15.945312 4.558594 8.605469 11.894531 8.59375 20.949219 C 8.59375 25.136719 12.539062 32.878906 19.699219 42.753906 C 20.929688 44.453125 22.902344 45.457031 25 45.457031 C 27.097656 45.457031 29.070312 44.453125 30.300781 42.753906 C 37.460938 32.878906 41.40625 25.136719 41.40625 20.949219 C 41.394531 11.894531 34.054688 4.558594 25 4.542969 Z M 25 4.542969 "/>
</g>
</svg>
